<?xml version="1.0" encoding="UTF-8"?>
<svg xmlns="http://www.w3.org/2000/svg" xmlns:xlink="http://www.w3.org/1999/xlink" width="18pt" height="15pt" viewBox="0 0 18 15" version="1.1">
<g id="surface1">
<path style=" stroke:none;fill-rule:nonzero;fill:rgb(0%,0%,0%);fill-opacity:1;" d="M 16.148438 4.445312 C 16.160156 4.578125 16.160156 4.710938 16.160156 4.84375 C 16.160156 8.910156 12.449219 13.589844 5.664062 13.589844 C 3.574219 13.589844 1.632812 13.085938 0 12.210938 C 0.296875 12.238281 0.582031 12.25 0.890625 12.25 C 2.617188 12.25 4.203125 11.765625 5.472656 10.9375 C 3.847656 10.90625 2.488281 10.023438 2.023438 8.804688 C 2.25 8.832031 2.476562 8.851562 2.71875 8.851562 C 3.050781 8.851562 3.378906 8.8125 3.6875 8.746094 C 2 8.460938 0.730469 7.222656 0.730469 5.730469 L 0.730469 5.691406 C 1.222656 5.921875 1.792969 6.0625 2.398438 6.082031 C 1.40625 5.53125 0.753906 4.585938 0.753906 3.523438 C 0.753906 2.949219 0.9375 2.425781 1.257812 1.96875 C 3.074219 3.835938 5.800781 5.054688 8.863281 5.1875 C 8.804688 4.957031 8.773438 4.722656 8.773438 4.484375 C 8.773438 2.789062 10.417969 1.410156 12.460938 1.410156 C 13.523438 1.410156 14.480469 1.78125 15.15625 2.378906 C 15.988281 2.246094 16.789062 1.988281 17.496094 1.636719 C 17.222656 2.351562 16.640625 2.949219 15.875 3.332031 C 16.617188 3.265625 17.335938 3.09375 18 2.855469 C 17.496094 3.464844 16.871094 4.007812 16.148438 4.445312 Z M 16.148438 4.445312 "/>
</g>
</svg>
